<?xml version="1.0" standalone="no"?>
<!DOCTYPE svg PUBLIC "-//W3C//DTD SVG 20010904//EN"
 "http://www.w3.org/TR/2001/REC-SVG-20010904/DTD/svg10.dtd">
<svg version="1.0" xmlns="http://www.w3.org/2000/svg"
 width="700.000000pt" height="700.000000pt" viewBox="0 0 700.000000 700.000000"
 preserveAspectRatio="xMidYMid meet">
<metadata>
Created by potrace 1.14, written by Peter Selinger 2001-2017
</metadata>
<g transform="translate(0.000000,700.000000) scale(0.100000,-0.100000)"
fill="#000000" stroke="none">
<path d="M3425 6038 c-16 -6 -75 -39 -130 -73 -55 -35 -518 -318 -1030 -630
-511 -312 -946 -577 -965 -590 -19 -12 -89 -55 -155 -95 -265 -161 -303 -184
-369 -229 -75 -49 -109 -100 -119 -173 -5 -42 21 -128 49 -159 56 -63 156 -93
229 -69 21 7 95 47 164 90 69 42 144 87 166 101 23 13 50 29 60 36 77 46 480
293 520 318 28 18 167 103 310 190 143 87 330 201 415 253 85 53 185 114 222
136 37 23 197 120 354 216 157 96 301 184 319 195 35 21 39 20 110 -24 17 -10
154 -93 305 -186 151 -92 302 -184 335 -205 33 -20 166 -101 295 -180 129 -78
251 -152 270 -165 38 -25 210 -130 385 -235 61 -37 169 -103 240 -147 666
-412 683 -420 777 -394 94 27 160 114 160 212 -1 56 -29 123 -65 156 -17 16
-1054 654 -1132 697 -11 6 -45 27 -76 46 -76 48 -219 136 -327 201 -102 61
-534 326 -562 344 -99 64 -579 352 -603 363 -34 15 -111 14 -152 0z"/>
<path d="M1385 3414 c-50 -17 -117 -87 -133 -139 -10 -31 -12 -255 -10 -1035
l3 -995 32 -65 c51 -107 126 -174 232 -210 l63 -21 1922 1 c2095 0 1984 -3
2077 56 94 59 160 154 180 257 13 72 13 1955 -1 2006 -19 70 -71 123 -142 145
-107 33 -209 -11 -264 -114 -18 -33 -19 -79 -21 -965 -1 -511 -2 -934 -2 -940
-1 -7 -615 -10 -1821 -10 -1611 0 -1820 2 -1821 15 0 8 -2 431 -3 940 -1 648
-5 933 -13 951 -45 103 -173 160 -278 123z"/>
<path d="M3365 2550 c-513 -5 -520 -5 -555 -27 -48 -29 -76 -61 -95 -105 -48
-117 23 -262 145 -295 20 -5 301 -9 655 -8 577 1 623 2 657 19 168 82 171 315
4 395 -54 27 -104 28 -811 21z"/>
</g>
</svg>
